<?xml version="1.0" encoding="UTF-8"?>
<!-- Created with Inkscape (http://www.inkscape.org/) -->
<svg width="211.29092mm" height="227.66377mm" version="1.1" viewBox="0 0 211.29092 227.66377" xmlns="http://www.w3.org/2000/svg" xmlns:cc="http://creativecommons.org/ns#" xmlns:dc="http://purl.org/dc/elements/1.1/" xmlns:rdf="http://www.w3.org/1999/02/22-rdf-syntax-ns#" xmlns:xlink="http://www.w3.org/1999/xlink">
 <defs>
  <linearGradient id="linearGradient4736" x1="103.74279" x2="103.74279" y1="13.403778" y2="982.00726" gradientUnits="userSpaceOnUse">
   <stop stop-color="#4d4d4d" offset="0"/>
   <stop stop-color="#212121" stop-opacity=".72881359" offset="1"/>
  </linearGradient>
 </defs>
 <metadata>
  <rdf:RDF>
   <cc:Work rdf:about="">
    <dc:format>image/svg+xml</dc:format>
    <dc:type rdf:resource="http://purl.org/dc/dcmitype/StillImage"/>
    <dc:title/>
   </cc:Work>
  </rdf:RDF>
 </metadata>
 <g transform="translate(.10507818 -13.011617)">
  <g transform="matrix(1.0294656 0 0 1.0294656 .00309619 -.3775021)" stroke-width=".97137779">
   <path d="m-0.10284173 75.796825v94.116065s-0.37797 9.4494 8.69345 14.36309c9.0714297 4.91369 89.20238 49.13691 89.20238 49.13691s5.291672 2.26786 11.339292-1.13393 91.09226-50.27083 91.09226-50.27083 4.91369-2.26786 4.91369-14.74107v-93.738093s-9e-3 -6.113491-7.89332-10.389804c-7.88445-4.276314-88.46622-48.643054-88.46622-48.643054s-5.78852-4.18366-13.348052 0.635537c-7.55952 4.819196-88.54092 49.136905-88.54092 49.136905s-6.61458 3.401785-6.99256 11.528274z" fill="url(#linearGradient4736)"/>
   <g transform="matrix(1.0509325,0,0,1.051179,2.583589,2.9067304)" fill="#f9f9f9">
    <g transform="translate(0,6.1021659)" fill="#f9f9f9">
     <path d="m41.010416 69.269345v36.474705h8.315476v-36.491096z"/>
     <path transform="scale(.26458333)" d="m212.85742 261.80469v137.5h30.96875v-51.44531h12.87891l29.86133 51.7207h32.26367l-31.79688-54.94531s22.20069-5.61551 25.35742-26.57618c0 0 2.96652-17.68192 0.10938-28.03906 0 0-2.85798-23.74944-32.32227-28.03515zm30.8418 21.91015 27.02148 0.25196s14.14326 1.76686 14.26953 18.93945c0.12627 17.1726-12.50195 21.33984-12.50195 21.33984h-28.78906z"/>
     <path transform="scale(.26458333)" d="m386.94141 261.51758c-9.90226-0.20026-49.67648 1.67852-52.32813 44.54687v47.72852s-1.51581 44.95193 50.00195 45.45703c0 0 57.07363 11.36404 57.32618-47.98242v-55.30469s-4.03946-35.60839-52.7793-34.3457c0 0-0.8061-0.071-2.2207-0.0996zm0.70117 23.12304c0.40213-9e-3 0.75695-6e-3 1.05469 2e-3 0.68053 0.019 1.0664 0.0664 1.0664 0.0664 23.44751-0.84053 25.39258 22.86329 25.39258 22.86329v36.81445c-0.12151 39.50519-27.57813 31.9414-27.57813 31.9414-24.78388-0.33622-24.05468-30.25976-24.05468-30.25976v-31.77148c1.19591-26.75268 18.0871-29.52411 24.11914-29.65626z"/>
     <path d="m123.42316 105.76866v-30.593437s-0.39191-5.71689 4.80526-5.71689c0 0 3.96875-0.61421 6.23661 4.11049s10.91406 21.82813 10.91406 21.82813 0.37798 0.80319 0.37798-0.18899v-26.00512h6.99893v30.78611s0.41885 5.707857-4.21136 5.707857h-1.50153s-3.45941-0.0709-5.32566-4.20499l-10.81074-21.614907s-0.46772-0.86862-0.50113-0.0334c-0.0334 0.83522 0 25.900557 0 25.900557z"/>
    </g>
   </g>
   <g transform="matrix(.75929625 0 0 .75856856 29.693917 50.969353)" stroke-width="1.2799268">
    <path d="m112.69226 131.66784s-0.30542-2.69685 0.5632-5.73704c0.86863-3.0402 1.46031-5.06771 3.13758-7.28832 0 0 2.84258 3.29598 6.48413 0.92396 0 0 3.80859-2.77292 6.14719-7.81763 0 0 2.97338-5.98016 3.97564-8.8533 0 0-8.4524 0.93544-12.62849 3.77518 0 0-4.77744 2.7061-5.61266 7.04923 0 0-0.36749 2.43884 0.63477 3.90882l0.17539 0.24221s-3.46615 4.45171-3.81694 6.85713c0 0-0.98142-4.19571-0.79243-7.21952 0.18898-3.02381 0.4016-5.45704 1.41741-8.19736 0 0-3.94513 6.40197-2.8112 13.11105l0.16536 0.75595s-2.17336-5.78776-5.31529-8.29185c0 0 2.5041-2.48047 1.93713-5.40979 0 0-0.42522-5.05543-5.95312-8.03199 0 0-8.457221-4.441222-17.764885-4.299481l6.520089 11.622771s3.732515 5.66964 6.803572 7.1343c0 0 3.827008 2.59858 7.843004-0.0945 0 0 1.93713 1.7009 4.15774 7.41779 0 0 1.87842 4.83393 1.92567 8.4247z" fill="#00dc00"/>
    <g fill="#f2f2f2">
     <path d="m35.880934 134.23285 2.873147-2.87314s-9.621703-8.95353-18.842501 0.53454c0 0-3.741774 4.14268-3.407687 10.02261 0 0-0.315907 6.03175 5.290038 9.66084 0 0 1.451605 1.12989 3.483227 1.60236 0 0 5.714655 0.79618 9.118675-0.28348 2.177129-0.69052 4.388242-1.75764 5.149926-3.59078v-10.39434h-10.583333v4.06324h6.331101v4.29948c-0.05681 0.47779-0.394382 0.84669-0.896475 1.13061-1.813924 1.02574-5.775186 0.94235-6.40319 0.87736 0 0-4.559338-0.30711-6.023996-4.37035s-0.614211-6.94531 0.188988-8.40997c0.8032-1.46466 2.409599-3.77976 6.047619-4.53571 2.267858-0.28353 5.238059-0.0968 7.674461 2.2667z"/>
     <path d="m53.587428 128.48652-11.258746 24.62227-0.03101 0.0868h4.996596l2.078942-4.6638h12.967168l2.205032 4.67723h4.94492l-11.159008-24.7225zm2.371947 5.41207 4.64416 10.35699h-9.388057z"/>
     <path d="m124.02344 131.63537-24.666198 0.0584v11.49284s-0.185891 2.48128 1.326018 4.84363c0 0 2.17343 3.54367 5.71696 4.81934 0 0 5.00826 1.55878 10.6779-0.14211 0 0 4.76336-2.05432 6.0663-6.04666 0 0 0.87902-2.08878 0.87902-5.33972zm-4.29948 4.67465v5.62705c0 1.88864-0.56948 3.10214-0.56948 3.10214-0.84385 2.31935-3.92844 3.51296-3.92844 3.51296-3.67197 0.98819-6.91586 0.0822-6.91586 0.0822-2.29498-0.7411-3.70261-2.79983-3.70261-2.79983-0.9792-1.37241-0.85887-2.81378-0.85887-2.81378v-6.6766z"/>
     <path d="m130.26049 128.38634v24.69922h18.3314v-4.42015h-13.85464v-5.81311h13.33007v-4.17609h-13.33007v-5.95411h13.85464v-4.34673z"/>
     <path d="m159.42627 153.10877h-4.6104v-24.70978h3.79239l11.88262 15.11905s0.35436 0.42522 0.35436 0v-15.09542h4.48847v24.66295h-2.92932l-12.52046-16.20573s-0.44885-0.51972-0.44885 0z"/>
     <path d="m86.3415 128.27403c-0.253384-2e-3 -0.523582 2e-3 -0.815454 0.0119h-12.177035v24.68945h4.632277v-8.22069h4.606439l7.215063 8.22069h5.512323l-7.584032-8.75347c2.405425-0.4009 3.77548-1.60352 3.77548-1.60352s1.637088-1.36982 2.205035-3.54139c0.567949-2.17156 0.02635-4.92941 0.02635-4.92941-0.850448-2.74032-2.593123-4.01836-2.593123-4.01836-2.062967-1.48662-3.029646-1.84038-4.803325-1.85518zm-8.398971 4.15478s3.608322 0.13384 7.283276 0.13384c3.674956 0 4.142382 2.03749 4.142382 4.87722 0 2.83975-3.407545 3.14038-3.407545 3.14038h-8.018113z"/>
    </g>
   </g>
  </g>
 </g>
</svg>
