<svg xmlns="http://www.w3.org/2000/svg" width="121.362" height="85.671" viewBox="0 0 121.362 85.671">
  <g id="Agrupar_276" data-name="Agrupar 276" transform="translate(-162.684 -129.957)">
    <g id="Agrupar_261" data-name="Agrupar 261" transform="translate(166.17 129.956)">
      <g id="Agrupar_260" data-name="Agrupar 260" transform="translate(0 0)">
        <path id="Caminho_125" data-name="Caminho 125" d="M44.369,74.96v38.481H53.14v-38.5Z" transform="translate(-44.369 -74.876)" fill="#595959"/>
        <path id="Caminho_126" data-name="Caminho 126" d="M60.93,74.959V113.34h8.642V98.98h3.594L81.5,113.417h9L81.63,98.08s6.2-1.567,7.076-7.418c0,0,.828-4.936.031-7.827,0,0-.8-6.629-9.02-7.826Zm8.607,6.116,7.541.07s3.947.493,3.982,5.287-3.489,5.957-3.489,5.957H69.537Z" transform="translate(-44.785 -74.876)" fill="#595959"/>
        <path id="Caminho_127" data-name="Caminho 127" d="M110.386,74.877c-2.763-.056-13.863.469-14.6,12.435v13.323s-.423,12.548,13.954,12.689c0,0,15.927,3.172,16-13.394V84.492s-1.127-9.94-14.729-9.587C111.006,74.9,110.781,74.885,110.386,74.877Zm.2,6.454c.112,0,.211,0,.294,0,.19.005.3.019.3.019,6.543-.235,7.086,6.382,7.086,6.382V98.009c-.034,11.027-7.7,8.916-7.7,8.916-6.916-.094-6.713-8.447-6.713-8.447V89.61c.334-7.468,5.048-8.241,6.731-8.278Z" transform="translate(-45.659 -74.874)" fill="#595959"/>
        <path id="Caminho_128" data-name="Caminho 128" d="M133.531,113.466V81.19s-.413-6.031,5.068-6.031c0,0,4.186-.648,6.578,4.337s11.512,23.029,11.512,23.029.4.847.4-.2V74.889h7.382v32.48s.442,6.022-4.442,6.022h-1.584s-3.649-.075-5.617-4.436l-11.4-22.8s-.493-.916-.529-.035,0,27.325,0,27.325Z" transform="translate(-46.606 -74.874)" fill="#595959"/>
      </g>
    </g>
    <g id="Agrupar_263" data-name="Agrupar 263" transform="translate(162.684 172.718)">
      <path id="Caminho_129" data-name="Caminho 129" d="M87.5,102.147a12.528,12.528,0,0,1,.429-4.368A15.1,15.1,0,0,1,90.32,92.23a3.8,3.8,0,0,0,4.941.7,16.6,16.6,0,0,0,4.685-5.952s2.266-4.553,3.03-6.74c0,0-6.441.712-9.624,2.874,0,0-3.641,2.06-4.277,5.367a4.913,4.913,0,0,0,.484,2.976l.134.184s-2.641,3.389-2.909,5.221a23.466,23.466,0,0,1-.6-5.5,20.452,20.452,0,0,1,1.08-6.241S84.253,90,85.117,95.107l.126.576s-1.656-4.406-4.051-6.313c0,0,1.908-1.888,1.476-4.119a8.318,8.318,0,0,0-4.537-6.115,31.938,31.938,0,0,0-13.538-3.273l4.969,8.849s2.844,4.317,5.185,5.432a5.529,5.529,0,0,0,5.977-.072s1.476,1.295,3.169,5.647a22.913,22.913,0,0,1,1.467,6.414Z" transform="translate(-14.181 -75.861)" fill="#1bcc89"/>
      <g id="Agrupar_262" data-name="Agrupar 262" transform="translate(0 23.139)">
        <path id="Caminho_130" data-name="Caminho 130" d="M27.667,104.695l2.19-2.187s-7.332-6.817-14.359.407a11.365,11.365,0,0,0-2.6,7.631,8.759,8.759,0,0,0,4.031,7.355,7.56,7.56,0,0,0,2.654,1.22s4.355.606,6.949-.216c1.659-.526,3.344-1.338,3.925-2.734v-7.914H22.395v3.093h4.825v3.273a1.189,1.189,0,0,1-.683.861c-1.382.781-4.4.717-4.88.668,0,0-3.475-.234-4.591-3.327a7.683,7.683,0,0,1,.144-6.4,6.531,6.531,0,0,1,4.609-3.453,6.848,6.848,0,0,1,5.848,1.726Z" transform="translate(-12.884 -99.595)" fill="#595959"/>
        <path id="Caminho_131" data-name="Caminho 131" d="M41.667,100.339l-8.58,18.746-.024.066h3.808l1.584-3.551h9.882l1.68,3.561h3.768l-8.5-18.822Zm1.808,4.12,3.539,7.885H39.859Z" transform="translate(-13.39 -99.613)" fill="#595959"/>
        <path id="Caminho_132" data-name="Caminho 132" d="M96.462,102.8l-18.8.044v8.75a6.6,6.6,0,0,0,1.011,3.688,9.728,9.728,0,0,0,4.357,3.669,15.309,15.309,0,0,0,8.137-.108s3.63-1.564,4.623-4.6a11.4,11.4,0,0,0,.67-4.065Zm-3.277,3.559v4.284A6.026,6.026,0,0,1,92.752,113c-.643,1.766-2.994,2.675-2.994,2.675a11.009,11.009,0,0,1-5.27.063,6.114,6.114,0,0,1-2.822-2.132,3.522,3.522,0,0,1-.655-2.142v-5.083Z" transform="translate(-14.509 -99.675)" fill="#595959"/>
        <path id="Caminho_133" data-name="Caminho 133" d="M101.821,100.26v18.8h13.97V115.7H105.233v-4.426h10.158v-3.179H105.233v-4.533h10.558v-3.309Z" transform="translate(-15.115 -99.611)" fill="#595959"/>
        <path id="Caminho_134" data-name="Caminho 134" d="M124.529,119.083h-3.513V100.27h2.89l9.055,11.511s.27.324.27,0V100.288h3.421v18.777h-2.232l-9.541-12.338s-.342-.4-.342,0Z" transform="translate(-15.597 -99.612)" fill="#595959"/>
        <path id="Caminho_135" data-name="Caminho 135" d="M67.236,100.172c-.193,0-.4,0-.621.009h-9.28v18.8h3.53V112.72h3.51l5.5,6.259h4.2l-5.78-6.664a6.2,6.2,0,0,0,2.877-1.221,5.777,5.777,0,0,0,1.68-2.7,9.961,9.961,0,0,0,.02-3.753,6.272,6.272,0,0,0-1.976-3.059,5.426,5.426,0,0,0-3.66-1.412Zm-6.4,3.163s2.75.1,5.55.1,3.157,1.551,3.157,3.713-2.6,2.391-2.6,2.391h-6.11Z" transform="translate(-13.999 -99.609)" fill="#595959"/>
      </g>
    </g>
  </g>
</svg>
